<svg xmlns="http://www.w3.org/2000/svg" xmlns:xlink="http://www.w3.org/1999/xlink" contentStyleType="text/css" height="687px" preserveAspectRatio="none" style="width:1496px;height:687px;background:#FFFFFF;" version="1.1" viewBox="0 0 1496 687" width="1496px" zoomAndPan="magnify"><defs/><g><!--cluster p\$_0--><g id="cluster_p\$_0"><path d="M8.5,6.0137 L91.9756,6.0137 A3.75,3.75 0 0 1 94.4756,8.5137 L101.4756,30.6348 L1458.5,30.6348 A2.5,2.5 0 0 1 1461,33.1348 L1461,538.5137 A2.5,2.5 0 0 1 1458.5,541.0137 L8.5,541.0137 A2.5,2.5 0 0 1 6,538.5137 L6,8.5137 A2.5,2.5 0 0 1 8.5,6.0137 " fill="#FFFFFF" style="stroke:#000000;stroke-width:1.5;"/><line style="stroke:#000000;stroke-width:1.5;" x1="6" x2="101.4756" y1="30.6348" y2="30.6348"/><a href="../../../org/example/example_relations.puml" target="_top" title="../../../org/example/example_relations.puml" xlink:actuate="onRequest" xlink:href="../../../org/example/example_relations.puml" xlink:show="new" xlink:title="../../../org/example/example_relations.puml" xlink:type="simple"><text fill="#0000FF" font-family="sans-serif" font-size="14" font-weight="bold" lengthAdjust="spacing" text-decoration="underline" textLength="82.4756" x="10" y="23.1211">org.example</text></a></g><!--cluster a--><g id="cluster_a"><path d="M32.5,51.0137 L41.2861,51.0137 A3.75,3.75 0 0 1 43.7861,53.5137 L50.7861,75.6348 L858.5,75.6348 A2.5,2.5 0 0 1 861,78.1348 L861,514.5137 A2.5,2.5 0 0 1 858.5,517.0137 L32.5,517.0137 A2.5,2.5 0 0 1 30,514.5137 L30,53.5137 A2.5,2.5 0 0 1 32.5,51.0137 " fill="#00FFFF" style="stroke:#000000;stroke-width:1.5;"/><line style="stroke:#000000;stroke-width:1.5;" x1="30" x2="50.7861" y1="75.6348" y2="75.6348"/><text fill="#000000" font-family="sans-serif" font-size="14" font-weight="bold" lengthAdjust="spacing" textLength="7.7861" x="34" y="68.1211">a</text></g><!--cluster p\$_1--><g id="cluster_p\$_1"><path d="M887.5,381.0137 L897.0518,381.0137 A3.75,3.75 0 0 1 899.5518,383.5137 L906.5518,405.6348 L1434.5,405.6348 A2.5,2.5 0 0 1 1437,408.1348 L1437,493.5137 A2.5,2.5 0 0 1 1434.5,496.0137 L887.5,496.0137 A2.5,2.5 0 0 1 885,493.5137 L885,383.5137 A2.5,2.5 0 0 1 887.5,381.0137 " fill="#FFFFFF" style="stroke:#000000;stroke-width:1.5;"/><line style="stroke:#000000;stroke-width:1.5;" x1="885" x2="906.5518" y1="405.6348" y2="405.6348"/><a href="../../../org/example/b/example_relations.puml" target="_top" title="../../../org/example/b/example_relations.puml" xlink:actuate="onRequest" xlink:href="../../../org/example/b/example_relations.puml" xlink:show="new" xlink:title="../../../org/example/b/example_relations.puml" xlink:type="simple"><text fill="#0000FF" font-family="sans-serif" font-size="14" font-weight="bold" lengthAdjust="spacing" text-decoration="underline" textLength="8.5518" x="889" y="398.1211">b</text></a></g><!--cluster p\$_2--><g id="cluster_p\$_2"><path d="M793.5,565.0137 L866.8311,565.0137 A3.75,3.75 0 0 1 869.3311,567.5137 L876.3311,589.6348 L902.5,589.6348 A2.5,2.5 0 0 1 905,592.1348 L905,677.5137 A2.5,2.5 0 0 1 902.5,680.0137 L793.5,680.0137 A2.5,2.5 0 0 1 791,677.5137 L791,567.5137 A2.5,2.5 0 0 1 793.5,565.0137 " fill="#FFFFFF" style="stroke:#000000;stroke-width:1.5;"/><line style="stroke:#000000;stroke-width:1.5;" x1="791" x2="876.3311" y1="589.6348" y2="589.6348"/><text fill="#000000" font-family="sans-serif" font-size="14" font-weight="bold" lengthAdjust="spacing" textLength="72.3311" x="795" y="582.1211">io.different</text></g><!--class ExampleClassName1--><g id="elem_ExampleClassName1"><rect codeLine="5" fill="#F1F1F1" height="103.8633" id="ExampleClassName1" rx="2.5" ry="2.5" style="stroke:#181818;stroke-width:0.5;" width="166.6064" x="540.5" y="233.0137"/><ellipse cx="555.5" cy="249.0137" fill="#ADD1B2" rx="11" ry="11" style="stroke:#181818;stroke-width:1.0;"/><path d="M558.2656,244.8887 Q558.4219,244.6699 558.6094,244.5605 Q558.7969,244.4512 559.0156,244.4512 Q559.3906,244.4512 559.625,244.7168 Q559.8594,244.9668 559.8594,245.5762 L559.8594,247.0293 Q559.8594,247.6387 559.625,247.9043 Q559.3906,248.1699 559.0156,248.1699 Q558.6719,248.1699 558.4688,247.9668 Q558.2656,247.7793 558.1563,247.2637 Q558.1094,246.9043 557.9219,246.7168 Q557.5938,246.3418 556.9844,246.123 Q556.375,245.9043 555.75,245.9043 Q554.9844,245.9043 554.3438,246.2324 Q553.7188,246.5605 553.2188,247.3105 Q552.7344,248.0605 552.7344,249.0918 L552.7344,250.1855 Q552.7344,251.4199 553.625,252.248 Q554.5156,253.0605 556.1094,253.0605 Q557.0469,253.0605 557.7031,252.8105 Q558.0938,252.6543 558.5156,252.2168 Q558.7813,251.9512 558.9219,251.873 Q559.0781,251.7949 559.2813,251.7949 Q559.6094,251.7949 559.8594,252.0605 Q560.125,252.3105 560.125,252.6543 Q560.125,252.998 559.7813,253.4043 Q559.2813,253.9824 558.4844,254.3105 Q557.4063,254.7637 556.1094,254.7637 Q554.5938,254.7637 553.3906,254.1387 Q552.4063,253.6387 551.7188,252.5762 Q551.0313,251.498 551.0313,250.2168 L551.0313,249.0605 Q551.0313,247.7324 551.6406,246.5918 Q552.2656,245.4355 553.3594,244.8262 Q554.4531,244.2012 555.6875,244.2012 Q556.4219,244.2012 557.0625,244.373 Q557.7188,244.5293 558.2656,244.8887 Z " fill="#000000"/><a href="../../../example/root/generated/src/main/org/example/a/ExampleClassName1.kt" target="_top" title="../../../example/root/generated/src/main/org/example/a/ExampleClassName1.kt" xlink:actuate="onRequest" xlink:href="../../../example/root/generated/src/main/org/example/a/ExampleClassName1.kt" xlink:show="new" xlink:title="../../../example/root/generated/src/main/org/example/a/ExampleClassName1.kt" xlink:type="simple"><text fill="#0000FF" font-family="sans-serif" font-size="14" lengthAdjust="spacing" text-decoration="underline" textLength="134.6064" x="569.5" y="254.8105">ExampleClassName1</text></a><line style="stroke:#181818;stroke-width:0.5;" x1="541.5" x2="706.1064" y1="265.0137" y2="265.0137"/><line style="stroke:#181818;stroke-width:0.5;" x1="541.5" x2="706.1064" y1="273.0137" y2="273.0137"/><text fill="#000000" font-family="sans-serif" font-size="14" lengthAdjust="spacing" textLength="56.0342" x="546.5" y="292.1211">methodA</text><text fill="#000000" font-family="sans-serif" font-size="14" lengthAdjust="spacing" textLength="56.0342" x="546.5" y="310.7422">methodB</text><text fill="#000000" font-family="sans-serif" font-size="14" lengthAdjust="spacing" textLength="56.8066" x="546.5" y="329.3633">methodC</text></g><!--class ExampleClassName5--><g id="elem_ExampleClassName5"><rect codeLine="10" fill="#F1F1F1" height="103.8633" id="ExampleClassName5" rx="2.5" ry="2.5" style="stroke:#181818;stroke-width:0.5;" width="166.6064" x="208.5" y="397.0137"/><ellipse cx="223.5" cy="413.0137" fill="#ADD1B2" rx="11" ry="11" style="stroke:#181818;stroke-width:1.0;"/><path d="M226.2656,408.8887 Q226.4219,408.6699 226.6094,408.5605 Q226.7969,408.4512 227.0156,408.4512 Q227.3906,408.4512 227.625,408.7168 Q227.8594,408.9668 227.8594,409.5762 L227.8594,411.0293 Q227.8594,411.6387 227.625,411.9043 Q227.3906,412.1699 227.0156,412.1699 Q226.6719,412.1699 226.4688,411.9668 Q226.2656,411.7793 226.1563,411.2637 Q226.1094,410.9043 225.9219,410.7168 Q225.5938,410.3418 224.9844,410.123 Q224.375,409.9043 223.75,409.9043 Q222.9844,409.9043 222.3438,410.2324 Q221.7188,410.5605 221.2188,411.3105 Q220.7344,412.0605 220.7344,413.0918 L220.7344,414.1855 Q220.7344,415.4199 221.625,416.248 Q222.5156,417.0605 224.1094,417.0605 Q225.0469,417.0605 225.7031,416.8105 Q226.0938,416.6543 226.5156,416.2168 Q226.7813,415.9512 226.9219,415.873 Q227.0781,415.7949 227.2813,415.7949 Q227.6094,415.7949 227.8594,416.0605 Q228.125,416.3105 228.125,416.6543 Q228.125,416.998 227.7813,417.4043 Q227.2813,417.9824 226.4844,418.3105 Q225.4063,418.7637 224.1094,418.7637 Q222.5938,418.7637 221.3906,418.1387 Q220.4063,417.6387 219.7188,416.5762 Q219.0313,415.498 219.0313,414.2168 L219.0313,413.0605 Q219.0313,411.7324 219.6406,410.5918 Q220.2656,409.4355 221.3594,408.8262 Q222.4531,408.2012 223.6875,408.2012 Q224.4219,408.2012 225.0625,408.373 Q225.7188,408.5293 226.2656,408.8887 Z " fill="#000000"/><a href="../../../example/root/generated/src/main/org/example/a/ExampleClassName5.kt" target="_top" title="../../../example/root/generated/src/main/org/example/a/ExampleClassName5.kt" xlink:actuate="onRequest" xlink:href="../../../example/root/generated/src/main/org/example/a/ExampleClassName5.kt" xlink:show="new" xlink:title="../../../example/root/generated/src/main/org/example/a/ExampleClassName5.kt" xlink:type="simple"><text fill="#0000FF" font-family="sans-serif" font-size="14" lengthAdjust="spacing" text-decoration="underline" textLength="134.6064" x="237.5" y="418.8105">ExampleClassName5</text></a><line style="stroke:#181818;stroke-width:0.5;" x1="209.5" x2="374.1064" y1="429.0137" y2="429.0137"/><line style="stroke:#181818;stroke-width:0.5;" x1="209.5" x2="374.1064" y1="437.0137" y2="437.0137"/><text fill="#000000" font-family="sans-serif" font-size="14" lengthAdjust="spacing" textLength="56.8066" x="214.5" y="456.1211">methodD</text><text fill="#000000" font-family="sans-serif" font-size="14" lengthAdjust="spacing" textLength="56.0342" x="214.5" y="474.7422">methodE</text><text fill="#000000" font-family="sans-serif" font-size="14" lengthAdjust="spacing" textLength="55.248" x="214.5" y="493.3633">methodF</text></g><!--class ExampleEnumClassName6--><g id="elem_ExampleEnumClassName6"><rect codeLine="15" fill="#F1F1F1" height="66.6211" id="ExampleEnumClassName6" rx="2.5" ry="2.5" style="stroke:#181818;stroke-width:0.5;" width="203.1787" x="410.5" y="415.5137"/><ellipse cx="425.5" cy="431.5137" fill="#EB937F" rx="11" ry="11" style="stroke:#181818;stroke-width:1.0;"/><path d="M424.3594,432.3105 L424.3594,434.8105 L428.6875,434.8105 L428.6875,433.8887 Q428.6875,433.2793 428.9219,433.0137 Q429.1719,432.748 429.5469,432.748 Q429.9219,432.748 430.1563,433.0137 Q430.3906,433.2793 430.3906,433.8887 L430.3906,436.5137 L422.3906,436.5137 Q421.7656,436.5137 421.5,436.2793 Q421.25,436.0449 421.25,435.6543 Q421.25,435.2793 421.5156,435.0449 Q421.7813,434.8105 422.3906,434.8105 L422.6563,434.8105 L422.6563,428.1543 L422.3906,428.1543 Q421.7656,428.1543 421.5,427.9199 Q421.25,427.6855 421.25,427.2949 Q421.25,426.9199 421.5,426.6855 Q421.7656,426.4512 422.3906,426.4512 L430.0156,426.4512 L430.0156,429.0449 Q430.0156,429.6543 429.7813,429.9199 Q429.5625,430.1699 429.1719,430.1699 Q428.7969,430.1699 428.5625,429.9199 Q428.3281,429.6543 428.3281,429.0449 L428.3281,428.1543 L424.3594,428.1543 L424.3594,430.6074 L425.8438,430.6074 Q425.8438,429.9512 425.9688,429.7637 Q426.2344,429.3574 426.7031,429.3574 Q427.0781,429.3574 427.3125,429.623 Q427.5469,429.873 427.5469,430.4824 L427.5469,432.4512 Q427.5469,432.998 427.4219,433.1855 Q427.1563,433.5762 426.7031,433.5762 Q426.2344,433.5762 425.9688,433.1699 Q425.8438,432.9824 425.8438,432.3105 L424.3594,432.3105 Z " fill="#000000"/><a href="../../../example/root/generated/src/main/org/example/a/ExampleEnumClassName6.kt" target="_top" title="../../../example/root/generated/src/main/org/example/a/ExampleEnumClassName6.kt" xlink:actuate="onRequest" xlink:href="../../../example/root/generated/src/main/org/example/a/ExampleEnumClassName6.kt" xlink:show="new" xlink:title="../../../example/root/generated/src/main/org/example/a/ExampleEnumClassName6.kt" xlink:type="simple"><text fill="#0000FF" font-family="sans-serif" font-size="14" lengthAdjust="spacing" text-decoration="underline" textLength="171.1787" x="439.5" y="437.3105">ExampleEnumClassName6</text></a><line style="stroke:#181818;stroke-width:0.5;" x1="411.5" x2="612.6787" y1="447.5137" y2="447.5137"/><line style="stroke:#181818;stroke-width:0.5;" x1="411.5" x2="612.6787" y1="455.5137" y2="455.5137"/><text fill="#000000" font-family="sans-serif" font-size="14" lengthAdjust="spacing" textLength="57.5859" x="416.5" y="474.6211">methodG</text></g><!--class ExampleDataClassName7--><g id="elem_ExampleDataClassName7"><rect codeLine="18" fill="#F1F1F1" height="48" id="ExampleDataClassName7" rx="2.5" ry="2.5" style="stroke:#181818;stroke-width:0.5;" width="196.1787" x="649" y="425.0137"/><ellipse cx="664" cy="441.0137" fill="#ADD1B2" rx="11" ry="11" style="stroke:#181818;stroke-width:1.0;"/><path d="M662.8594,441.8105 L662.8594,444.3105 L667.1875,444.3105 L667.1875,443.3887 Q667.1875,442.7793 667.4219,442.5137 Q667.6719,442.248 668.0469,442.248 Q668.4219,442.248 668.6563,442.5137 Q668.8906,442.7793 668.8906,443.3887 L668.8906,446.0137 L660.8906,446.0137 Q660.2656,446.0137 660,445.7793 Q659.75,445.5449 659.75,445.1543 Q659.75,444.7793 660.0156,444.5449 Q660.2813,444.3105 660.8906,444.3105 L661.1563,444.3105 L661.1563,437.6543 L660.8906,437.6543 Q660.2656,437.6543 660,437.4199 Q659.75,437.1855 659.75,436.7949 Q659.75,436.4199 660,436.1855 Q660.2656,435.9512 660.8906,435.9512 L668.5156,435.9512 L668.5156,438.5449 Q668.5156,439.1543 668.2813,439.4199 Q668.0625,439.6699 667.6719,439.6699 Q667.2969,439.6699 667.0625,439.4199 Q666.8281,439.1543 666.8281,438.5449 L666.8281,437.6543 L662.8594,437.6543 L662.8594,440.1074 L664.3438,440.1074 Q664.3438,439.4512 664.4688,439.2637 Q664.7344,438.8574 665.2031,438.8574 Q665.5781,438.8574 665.8125,439.123 Q666.0469,439.373 666.0469,439.9824 L666.0469,441.9512 Q666.0469,442.498 665.9219,442.6855 Q665.6563,443.0762 665.2031,443.0762 Q664.7344,443.0762 664.4688,442.6699 Q664.3438,442.4824 664.3438,441.8105 L662.8594,441.8105 Z " fill="#000000"/><a href="../../../example/root/generated/src/main/org/example/a/ExampleDataClassName7.kt" target="_top" title="../../../example/root/generated/src/main/org/example/a/ExampleDataClassName7.kt" xlink:actuate="onRequest" xlink:href="../../../example/root/generated/src/main/org/example/a/ExampleDataClassName7.kt" xlink:show="new" xlink:title="../../../example/root/generated/src/main/org/example/a/ExampleDataClassName7.kt" xlink:type="simple"><text fill="#0000FF" font-family="sans-serif" font-size="14" lengthAdjust="spacing" text-decoration="underline" textLength="164.1787" x="678" y="446.8105">ExampleDataClassName7</text></a><line style="stroke:#181818;stroke-width:0.5;" x1="650" x2="844.1787" y1="457.0137" y2="457.0137"/><line style="stroke:#181818;stroke-width:0.5;" x1="650" x2="844.1787" y1="465.0137" y2="465.0137"/></g><!--class ExampleInterface--><g id="elem_ExampleInterface"><rect codeLine="20" fill="#F1F1F1" height="66.6211" id="ExampleInterface" rx="2.5" ry="2.5" style="stroke:#181818;stroke-width:0.5;" width="140.9443" x="168.5" y="97.0137"/><ellipse cx="183.5" cy="113.0137" fill="#B4A7E5" rx="11" ry="11" style="stroke:#181818;stroke-width:1.0;"/><path d="M184.4531,109.6543 L184.4531,116.3105 L186.1719,116.3105 Q186.7813,116.3105 187.0469,116.5449 Q187.3125,116.7793 187.3125,117.1699 Q187.3125,117.5449 187.0469,117.7793 Q186.7813,118.0137 186.1719,118.0137 L181.0313,118.0137 Q180.4219,118.0137 180.1563,117.7793 Q179.8906,117.5449 179.8906,117.1543 Q179.8906,116.7793 180.1563,116.5449 Q180.4219,116.3105 181.0313,116.3105 L182.75,116.3105 L182.75,109.6543 L181.0313,109.6543 Q180.4219,109.6543 180.1563,109.4199 Q179.8906,109.1855 179.8906,108.7949 Q179.8906,108.4199 180.1563,108.1855 Q180.4219,107.9512 181.0313,107.9512 L186.1719,107.9512 Q186.7813,107.9512 187.0469,108.1855 Q187.3125,108.4199 187.3125,108.7949 Q187.3125,109.1855 187.0469,109.4199 Q186.7813,109.6543 186.1719,109.6543 L184.4531,109.6543 Z " fill="#000000"/><a href="../../../example/root/generated/src/main/org/example/a/ExampleInterface.kt" target="_top" title="../../../example/root/generated/src/main/org/example/a/ExampleInterface.kt" xlink:actuate="onRequest" xlink:href="../../../example/root/generated/src/main/org/example/a/ExampleInterface.kt" xlink:show="new" xlink:title="../../../example/root/generated/src/main/org/example/a/ExampleInterface.kt" xlink:type="simple"><text fill="#0000FF" font-family="sans-serif" font-size="14" font-style="italic" lengthAdjust="spacing" text-decoration="underline" textLength="108.9443" x="197.5" y="118.8105">ExampleInterface</text></a><line style="stroke:#181818;stroke-width:0.5;" x1="169.5" x2="308.4443" y1="129.0137" y2="129.0137"/><line style="stroke:#181818;stroke-width:0.5;" x1="169.5" x2="308.4443" y1="137.0137" y2="137.0137"/><text fill="#000000" font-family="sans-serif" font-size="14" lengthAdjust="spacing" textLength="56.0342" x="174.5" y="156.1211">methodB</text></g><!--class ExampleAbstractClassName8--><g id="elem_ExampleAbstractClassName8"><rect codeLine="23" fill="#F1F1F1" height="85.2422" id="ExampleAbstractClassName8" rx="2.5" ry="2.5" style="stroke:#181818;stroke-width:0.5;" width="217.958" x="435" y="88.0137"/><ellipse cx="450" cy="104.0137" fill="#A9DCDF" rx="11" ry="11" style="stroke:#181818;stroke-width:1.0;"/><path d="M452.1875,105.7793 L448.0469,105.7793 L447.625,106.8105 L448.0469,106.8105 Q448.6563,106.8105 448.9219,107.0449 Q449.1875,107.2793 449.1875,107.6699 Q449.1875,108.0449 448.9219,108.2793 Q448.6563,108.5137 448.0469,108.5137 L445.75,108.5137 Q445.1406,108.5137 444.8906,108.2793 Q444.625,108.0449 444.625,107.6543 Q444.625,107.2793 444.9063,107.0449 Q445.1719,106.7949 445.7969,106.8105 L448.4688,100.1543 L447.3594,100.1543 Q446.75,100.1543 446.4844,99.9199 Q446.2188,99.6855 446.2188,99.2949 Q446.2188,98.9199 446.4844,98.6855 Q446.75,98.4512 447.3594,98.4512 L451.0313,98.4512 L454.4219,106.8105 Q455.0156,106.8105 455.2031,106.9512 Q455.5938,107.2168 455.5938,107.6699 Q455.5938,108.0449 455.3281,108.2793 Q455.0781,108.5137 454.4688,108.5137 L452.1719,108.5137 Q451.5625,108.5137 451.2969,108.2793 Q451.0313,108.0449 451.0313,107.6543 Q451.0313,107.2793 451.2969,107.0449 Q451.5625,106.8105 452.1719,106.8105 L452.5938,106.8105 L452.1875,105.7793 Z M451.4688,104.0762 L450.1094,100.7012 L448.7344,104.0762 L451.4688,104.0762 Z " fill="#000000"/><a href="../../../example/root/generated/src/main/org/example/a/ExampleAbstractClassName8.kt" target="_top" title="../../../example/root/generated/src/main/org/example/a/ExampleAbstractClassName8.kt" xlink:actuate="onRequest" xlink:href="../../../example/root/generated/src/main/org/example/a/ExampleAbstractClassName8.kt" xlink:show="new" xlink:title="../../../example/root/generated/src/main/org/example/a/ExampleAbstractClassName8.kt" xlink:type="simple"><text fill="#0000FF" font-family="sans-serif" font-size="14" font-style="italic" lengthAdjust="spacing" text-decoration="underline" textLength="185.958" x="464" y="109.8105">ExampleAbstractClassName8</text></a><line style="stroke:#181818;stroke-width:0.5;" x1="436" x2="651.958" y1="120.0137" y2="120.0137"/><line style="stroke:#181818;stroke-width:0.5;" x1="436" x2="651.958" y1="128.0137" y2="128.0137"/><text fill="#000000" font-family="sans-serif" font-size="14" lengthAdjust="spacing" textLength="56.8066" x="441" y="147.1211">methodH</text><text fill="#000000" font-family="sans-serif" font-size="14" lengthAdjust="spacing" textLength="56.8066" x="441" y="165.7422">methodC</text></g><!--class ExampleObject--><g id="elem_ExampleObject"><rect codeLine="27" fill="#F1F1F1" height="66.6211" id="ExampleObject" rx="2.5" ry="2.5" style="stroke:#181818;stroke-width:0.5;" width="126.9307" x="46.5" y="415.5137"/><ellipse cx="61.5" cy="431.5137" fill="#ADD1B2" rx="11" ry="11" style="stroke:#181818;stroke-width:1.0;"/><path d="M64.2656,427.3887 Q64.4219,427.1699 64.6094,427.0605 Q64.7969,426.9512 65.0156,426.9512 Q65.3906,426.9512 65.625,427.2168 Q65.8594,427.4668 65.8594,428.0762 L65.8594,429.5293 Q65.8594,430.1387 65.625,430.4043 Q65.3906,430.6699 65.0156,430.6699 Q64.6719,430.6699 64.4688,430.4668 Q64.2656,430.2793 64.1563,429.7637 Q64.1094,429.4043 63.9219,429.2168 Q63.5938,428.8418 62.9844,428.623 Q62.375,428.4043 61.75,428.4043 Q60.9844,428.4043 60.3438,428.7324 Q59.7188,429.0605 59.2188,429.8105 Q58.7344,430.5605 58.7344,431.5918 L58.7344,432.6855 Q58.7344,433.9199 59.625,434.748 Q60.5156,435.5605 62.1094,435.5605 Q63.0469,435.5605 63.7031,435.3105 Q64.0938,435.1543 64.5156,434.7168 Q64.7813,434.4512 64.9219,434.373 Q65.0781,434.2949 65.2813,434.2949 Q65.6094,434.2949 65.8594,434.5605 Q66.125,434.8105 66.125,435.1543 Q66.125,435.498 65.7813,435.9043 Q65.2813,436.4824 64.4844,436.8105 Q63.4063,437.2637 62.1094,437.2637 Q60.5938,437.2637 59.3906,436.6387 Q58.4063,436.1387 57.7188,435.0762 Q57.0313,433.998 57.0313,432.7168 L57.0313,431.5605 Q57.0313,430.2324 57.6406,429.0918 Q58.2656,427.9355 59.3594,427.3262 Q60.4531,426.7012 61.6875,426.7012 Q62.4219,426.7012 63.0625,426.873 Q63.7188,427.0293 64.2656,427.3887 Z " fill="#000000"/><a href="../../../example/root/generated/src/main/org/example/a/ExampleObject.kt" target="_top" title="../../../example/root/generated/src/main/org/example/a/ExampleObject.kt" xlink:actuate="onRequest" xlink:href="../../../example/root/generated/src/main/org/example/a/ExampleObject.kt" xlink:show="new" xlink:title="../../../example/root/generated/src/main/org/example/a/ExampleObject.kt" xlink:type="simple"><text fill="#0000FF" font-family="sans-serif" font-size="14" lengthAdjust="spacing" text-decoration="underline" textLength="94.9307" x="75.5" y="437.3105">ExampleObject</text></a><line style="stroke:#181818;stroke-width:0.5;" x1="47.5" x2="172.4307" y1="447.5137" y2="447.5137"/><line style="stroke:#181818;stroke-width:0.5;" x1="47.5" x2="172.4307" y1="455.5137" y2="455.5137"/><text fill="#000000" font-family="sans-serif" font-size="14" lengthAdjust="spacing" textLength="50.5859" x="52.5" y="474.6211">methodI</text></g><!--entity ExampleClassName2--><g id="elem_ExampleClassName2"><ellipse cx="1161" cy="449.0137" fill="#F1F1F1" rx="8" ry="8" style="stroke:#181818;stroke-width:0.5;"/><text fill="#000000" font-family="sans-serif" font-size="14" lengthAdjust="spacing" textLength="134.6064" x="1093.6968" y="481.1211">ExampleClassName2</text></g><!--entity ExampleClassName3--><g id="elem_ExampleClassName3"><ellipse cx="976" cy="449.0137" fill="#F1F1F1" rx="8" ry="8" style="stroke:#181818;stroke-width:0.5;"/><text fill="#000000" font-family="sans-serif" font-size="14" lengthAdjust="spacing" textLength="134.6064" x="908.6968" y="481.1211">ExampleClassName3</text></g><!--entity ExampleClassName4--><g id="elem_ExampleClassName4"><ellipse cx="1346" cy="449.0137" fill="#F1F1F1" rx="8" ry="8" style="stroke:#181818;stroke-width:0.5;"/><text fill="#000000" font-family="sans-serif" font-size="14" lengthAdjust="spacing" textLength="134.6064" x="1278.6968" y="481.1211">ExampleClassName4</text></g><!--entity Something--><g id="elem_Something"><ellipse cx="848" cy="633.0137" fill="#F1F1F1" rx="8" ry="8" style="stroke:#181818;stroke-width:0.5;"/><text fill="#000000" font-family="sans-serif" font-size="14" lengthAdjust="spacing" textLength="66.9307" x="814.5347" y="665.1211">Something</text></g><!--reverse link ExampleInterface to ExampleClassName1--><g id="link_ExampleInterface_ExampleClassName1"><path codeLine="41" d="M326.3448,166.1128 C391.4748,191.9128 471.48,223.6037 540.43,250.9137 " fill="none" id="ExampleInterface-backto-ExampleClassName1" style="stroke:#181818;stroke-width:1.0;stroke-dasharray:7.0,7.0;"/><polygon fill="none" points="309.61,159.4837,324.1351,171.6911,328.5545,160.5346,309.61,159.4837" style="stroke:#181818;stroke-width:1.0;"/></g><!--reverse link ExampleAbstractClassName8 to ExampleClassName1--><g id="link_ExampleAbstractClassName8_ExampleClassName1"><path codeLine="42" d="M574.2231,189.1229 C583.8931,207.5529 586.99,213.4637 597.17,232.8737 " fill="none" id="ExampleAbstractClassName8-backto-ExampleClassName1" style="stroke:#181818;stroke-width:1.0;stroke-dasharray:7.0,7.0;"/><polygon fill="none" points="565.86,173.1837,568.91,191.9106,579.5362,186.3352,565.86,173.1837" style="stroke:#181818;stroke-width:1.0;"/></g><!--reverse link ExampleClassName1 to ExampleClassName5--><g id="link_ExampleClassName1_ExampleClassName5"><path codeLine="43" d="M528.9137,315.0719 C483.9237,330.1719 439.65,347.5637 393,373.0137 C380.25,379.9737 367.31,388.3737 355.14,397.0037 " fill="none" id="ExampleClassName1-backto-ExampleClassName5" style="stroke:#181818;stroke-width:1.0;"/><polygon fill="none" points="540.29,311.2537,533.3291,309.3707,528.9137,315.0719,535.8746,316.9549,540.29,311.2537" style="stroke:#181818;stroke-width:1.0;"/></g><!--reverse link ExampleClassName1 to ExampleEnumClassName6--><g id="link_ExampleClassName1_ExampleEnumClassName6"><path codeLine="44" d="M581.7345,347.1434 C564.0445,372.7234 550.01,393.0337 534.53,415.4237 " fill="none" id="ExampleClassName1-backto-ExampleEnumClassName6" style="stroke:#181818;stroke-width:1.0;"/><polygon fill="none" points="588.56,337.2737,581.8573,339.9334,581.7345,347.1434,588.4372,344.4837,588.56,337.2737" style="stroke:#181818;stroke-width:1.0;"/></g><!--reverse link ExampleClassName1 to ExampleDataClassName7--><g id="link_ExampleClassName1_ExampleDataClassName7"><path codeLine="45" d="M670.1768,346.8308 C692.4168,376.1208 711.97,401.8837 729.25,424.6337 " fill="none" id="ExampleClassName1-backto-ExampleDataClassName7" style="stroke:#181818;stroke-width:1.0;"/><polygon fill="none" points="662.92,337.2737,663.3627,344.4712,670.1768,346.8308,669.7341,339.6333,662.92,337.2737" style="stroke:#181818;stroke-width:1.0;"/></g><!--reverse link ExampleClassName1 to Something--><g id="link_ExampleClassName1_Something"><path codeLine="46" d="M719.5417,289.1989 C917.2417,296.5389 1388.82,319.4037 1437,373.0137 C1489.29,431.1937 1488.31,489.9737 1437,549.0137 C1396.95,595.1037 928.21,626.8737 857.03,631.4437 " fill="none" id="ExampleClassName1-backto-Something" style="stroke:#181818;stroke-width:1.0;"/><polygon fill="none" points="707.55,288.7537,713.3975,292.9735,719.5417,289.1989,713.6943,284.979,707.55,288.7537" style="stroke:#181818;stroke-width:1.0;"/></g><!--reverse link ExampleClassName1 to ExampleObject--><g id="link_ExampleClassName1_ExampleObject"><path codeLine="47" d="M528.6,307.7459 C484.3,317.6659 440.65,327.1137 391,337.0137 C302.43,354.6737 271.83,332.7137 191,373.0137 C170.59,383.1937 151.65,400.1137 137.23,415.3037 " fill="none" id="ExampleClassName1-backto-ExampleObject" style="stroke:#181818;stroke-width:1.0;"/><polygon fill="none" points="540.31,305.1237,533.5809,302.5314,528.6,307.7459,535.3291,310.3381,540.31,305.1237" style="stroke:#181818;stroke-width:1.0;"/></g><!--link ExampleClassName1 to ExampleClassName2--><g id="link_ExampleClassName1_ExampleClassName2"><path codeLine="48" d="M707.71,290.2337 C800.08,297.6037 951.22,317.7837 1069,373.0137 C1105.2,389.9837 1135.3015,419.8938 1149.7215,435.5238 " fill="none" id="ExampleClassName1-to-ExampleClassName2" style="stroke:#181818;stroke-width:1.0;"/><polygon fill="#181818" points="1153.79,439.9337,1150.6272,430.6065,1150.3996,436.2588,1144.7473,436.0312,1153.79,439.9337" style="stroke:#181818;stroke-width:1.0;"/></g><!--link ExampleClassName1 to ExampleClassName3--><g id="link_ExampleClassName1_ExampleClassName3"><path codeLine="49" d="M707.64,311.5637 C753.91,326.9637 811.83,348.3537 861,373.0137 C902.76,393.9537 943.1979,423.1831 962.0979,437.4231 " fill="none" id="ExampleClassName1-to-ExampleClassName3" style="stroke:#181818;stroke-width:1.0;"/><polygon fill="#181818" points="966.89,441.0337,962.1089,432.4231,962.8966,438.0249,957.2949,438.8126,966.89,441.0337" style="stroke:#181818;stroke-width:1.0;"/></g><!--link ExampleClassName1 to ExampleClassName4--><g id="link_ExampleClassName1_ExampleClassName4"><path codeLine="50" d="M707.68,291.9437 C855.8,303.3537 1157.57,331.0337 1254,373.0137 C1290.66,388.9737 1320.5849,419.3461 1334.8749,435.2861 " fill="none" id="ExampleClassName1-to-ExampleClassName4" style="stroke:#181818;stroke-width:1.0;"/><polygon fill="#181818" points="1338.88,439.7537,1335.8507,430.3823,1335.5424,436.0307,1329.894,435.7224,1338.88,439.7537" style="stroke:#181818;stroke-width:1.0;"/></g><!--link ExampleClassName5 to Something--><g id="link_ExampleClassName5_Something"><path codeLine="51" d="M332.8,501.1137 C349.61,518.9037 370.43,537.3237 393,549.0137 C555.56,633.2137 783.4712,633.3955 832.7012,632.3955 " fill="none" id="ExampleClassName5-to-Something" style="stroke:#181818;stroke-width:1.0;"/><polygon fill="#181818" points="838.7,632.2737,829.6206,628.4573,833.701,632.3752,829.7831,636.4556,838.7,632.2737" style="stroke:#181818;stroke-width:1.0;"/></g><!--link ExampleInterface to ExampleObject--><g id="link_ExampleInterface_ExampleObject"><path codeLine="52" d="M225.68,164.1937 C200.9,225.0037 150.2448,349.2875 125.5148,409.9575 " fill="none" id="ExampleInterface-to-ExampleObject" style="stroke:#181818;stroke-width:1.0;"/><polygon fill="#181818" points="123.25,415.5137,130.3513,408.6893,125.1373,410.8835,122.9431,405.6696,123.25,415.5137" style="stroke:#181818;stroke-width:1.0;"/></g><!--reverse link ExampleAbstractClassName8 to ExampleObject--><g id="link_ExampleAbstractClassName8_ExampleObject"><path codeLine="53" d="M467.0782,179.4538 C394.5182,225.5038 286.33,296.9437 191,373.0137 C174.52,386.1637 157.25,401.8637 142.91,415.4837 " fill="none" id="ExampleAbstractClassName8-backto-ExampleObject" style="stroke:#181818;stroke-width:1.0;"/><polygon fill="none" points="477.21,173.0237,470.0007,172.8615,467.0782,179.4538,474.2875,179.616,477.21,173.0237" style="stroke:#181818;stroke-width:1.0;"/></g><!--SRC=[lLLTJuCm57tdLzJggp0tfxwuP9_gYpxecvhb3hg90YMbYnhTVnS6T2rb9HXZisJaddDlpsdAuU0e1lxoGCVK8oD82Bf4sBQT_4S-88m3uZ1AkRCY4M70YOUjWw9fGjr4Qw9iLJPYAmRt3LO4uSV7Ia_9cJCI0FTfbDZnEWnGscuNqFCpHf2W-Ebeta67o-r2NnPAbvWB61rsEhDq5KYst02IHDgpDESap7L2y2DPf0FED7yQPsst498J-uqZhLZ8qUhInjdw2Wb_eTu6vVz34pWoWMC1RlxCMR_EMN-FixxPsSG4JatWhCOPYTPXUsFJj4leFPFCgO1gKCNC9gzgfNAVVxONEm4EOjzpIQmAg69LJ1Axq-D7dB0bkAIzf9koLL8ZQgeGKJOVsAX682mIpi3blxs-mw9VdCE595S7LTqwRZPm_K_lvDtYbRXSCf8NLF5vpIpufg9feoQadhoBVTcxa1Btf9AuMwS-SuDqP3KekhYHqckcdE92_cRtsV2fxVdB9M7fEoUaTIlIoe7tD3iGFrhXT8IbvxIzZktlWNQV6vdw3QffeSSUVO-EzH1jvgfvrCnN8y705mVIF3E_Q3Myd3RGV7LRS7ijkAUM_XagkPgVNIPLngbsQYAWrluF]--></g></svg>